<svg id="Layer_1" data-name="Layer 1" xmlns="http://www.w3.org/2000/svg" viewBox="0 0 87.28 87.28"><defs><style>.cls-1{fill:#00a2c0;}.cls-2{fill:#fff;}</style></defs><title>CanchasClub_Iconografia</title><circle class="cls-1" cx="43.64" cy="43.64" r="43.64" transform="translate(-8.72 76.31) rotate(-76.97)"/><path class="cls-2" d="M66.7,38.24a2.43,2.43,0,0,0-1.36-4.15L52.42,32.26a2.41,2.41,0,0,1-1.84-1.33L44.75,19.26a2.44,2.44,0,0,0-4.37,0L34.66,31a2.46,2.46,0,0,1-1.83,1.34L19.92,34.27a2.43,2.43,0,0,0-1.33,4.16L28,47.5a2.46,2.46,0,0,1,.71,2.15L26.52,62.52a2.44,2.44,0,0,0,3.55,2.56L41.59,59a2.43,2.43,0,0,1,2.27,0l11.58,6A2.44,2.44,0,0,0,59,62.39L56.7,49.54a2.47,2.47,0,0,1,.7-2.16ZM54.92,46.41a2,2,0,0,0-.58,1.8l1.88,10.68A2,2,0,0,1,53.28,61l-9.62-5a2,2,0,0,0-1.89,0l-9.58,5.09A2,2,0,0,1,29.24,59L31,48.3a2,2,0,0,0-.59-1.79L22.64,39a2,2,0,0,1,1.11-3.47l10.73-1.6A2,2,0,0,0,36,32.79L40.77,23a2,2,0,0,1,3.63,0l4.84,9.71a2,2,0,0,0,1.53,1.1l10.75,1.52a2,2,0,0,1,1.13,3.45Zm-2.07-.8a1.71,1.71,0,0,0-.48,1.49L53.94,56a1.69,1.69,0,0,1-2.44,1.79l-8-4.17a1.71,1.71,0,0,0-1.57,0l-8,4.23a1.69,1.69,0,0,1-2.46-1.77L33,47.18a1.69,1.69,0,0,0-.49-1.49L26,39.41a1.69,1.69,0,0,1,.92-2.88l8.93-1.33a1.68,1.68,0,0,0,1.27-.93l4-8.11a1.69,1.69,0,0,1,3,0l4,8.08a1.73,1.73,0,0,0,1.28.92l8.93,1.26a1.68,1.68,0,0,1,.95,2.87Z"/></svg>