<svg id="Layer_1" data-name="Layer 1" xmlns="http://www.w3.org/2000/svg" viewBox="0 0 87.28 87.28"><defs><style>.cls-1{fill:#00a2c0;}.cls-2{fill:#fff;}</style></defs><title>CanchasClub_Iconografia</title><circle class="cls-1" cx="43.64" cy="43.64" r="43.64" transform="translate(-18.08 43.64) rotate(-45)"/><path class="cls-2" d="M33.39,33a3.27,3.27,0,0,0,3.37-3.06.88.88,0,0,0,0-.17,1,1,0,0,0,0-.18A3.23,3.23,0,1,0,33.39,33"/><path class="cls-2" d="M15.08,24.3a3.24,3.24,0,1,0,3.22,3.41.47.47,0,0,0,0-.17.53.53,0,0,0,0-.18,3.27,3.27,0,0,0-3.22-3.06"/><path class="cls-2" d="M55.26,33a3.24,3.24,0,1,0-3.36-3.41.36.36,0,0,0,0,.18.32.32,0,0,0,0,.17A3.26,3.26,0,0,0,55.26,33"/><path class="cls-2" d="M73.58,24.3a3.27,3.27,0,0,0-3.22,3.06.52.52,0,0,0,0,.18.47.47,0,0,0,0,.17,3.23,3.23,0,1,0,3.22-3.41"/><path class="cls-2" d="M63.07,59.55a180.24,180.24,0,0,0-29.84-.63c-2.55.15-5.1.37-7.64.63s-2.92,5.74-.46,5.41a156.2,156.2,0,0,1,30.57-.77q3.91.28,7.82.77c2.46.33,1.93-5.16-.45-5.41"/><path class="cls-2" d="M68.45,34.63c-3.6,3.1-7.37,5.95-11.32,8.75q-2-3.77-3.83-7.45A.87.87,0,0,0,52,35.76c-2.45,2.69-5,5.33-7.65,8-2.66-2.67-5.21-5.31-7.65-8a.86.86,0,0,0-1.32.17q-1.86,3.69-3.83,7.45c-4-2.8-7.73-5.65-11.33-8.75-.53-.45-1.48.31-1.34,1,1.34,6.56,2.93,12.15,4.64,18.27.24.87.49,1.73.74,2.59a.93.93,0,0,0,.09.2.68.68,0,0,0,.74.34q9.6-.95,19.26-.95c3.82,0,7.63.12,11.45.34,2.6.15,5.2.36,7.8.61a.68.68,0,0,0,.74-.34.61.61,0,0,0,.09-.2c1.76-6.07,3.41-11.6,4.8-18.08.2-.92.39-1.85.58-2.78.14-.7-.81-1.46-1.34-1"/></svg>