<svg id="Layer_1" data-name="Layer 1" xmlns="http://www.w3.org/2000/svg" viewBox="0 0 87.28 87.28"><defs><style>.cls-1{fill:#00a2c0;}.cls-2{fill:#fff;}</style></defs><title>CanchasClub_Iconografia</title><circle class="cls-1" cx="43.64" cy="43.64" r="43.64" transform="translate(-18.08 43.64) rotate(-45)"/><path class="cls-2" d="M51,38.9H35.35a1,1,0,0,1-.81-1.57l7.8-11a1,1,0,0,1,1.62,0l7.81,11A1,1,0,0,1,51,38.9"/><path class="cls-2" d="M40,25.9,31.1,38.48a1,1,0,0,1-.81.42h-12a1,1,0,0,1-.81-1.58l9.15-12.57a1,1,0,0,1,.8-.41H39.17A1,1,0,0,1,40,25.9"/><path class="cls-2" d="M68,38.9H56a1,1,0,0,1-.81-.42L46.33,25.9a1,1,0,0,1,.81-1.56H58.89a1,1,0,0,1,.8.41l9.14,12.57A1,1,0,0,1,68,38.9"/><path class="cls-2" d="M68.27,42.69,49.49,64.08a1,1,0,0,1-1.68-1L55.46,41.7A1,1,0,0,1,56.4,41H67.52a1,1,0,0,1,.75,1.65"/><path class="cls-2" d="M52,41A1,1,0,0,1,53,42.37l-.45,1.24-2.81,7.86-5.6,15.66a1,1,0,0,1-1.87,0L33.36,42.37A1,1,0,0,1,34.3,41Z"/><path class="cls-2" d="M36.81,64.08,18,42.69A1,1,0,0,1,18.78,41H29.91a1,1,0,0,1,.93.66l7.65,21.39a1,1,0,0,1-1.68,1"/></svg>