<svg id="Layer_1" data-name="Layer 1" xmlns="http://www.w3.org/2000/svg" viewBox="0 0 87.28 87.28"><defs><style>.cls-1{fill:#00a2c0;}.cls-2{fill:#fff;}</style></defs><title>CanchasClub_Iconografia</title><circle class="cls-1" cx="43.64" cy="43.64" r="43.64"/><path class="cls-2" d="M67.15,17.92h-47a3.48,3.48,0,0,0-3.48,3.48V51.07a3.48,3.48,0,0,0,3.48,3.48h2.81l.37-22.8a3,3,0,0,1,3-3h5.77a12.39,12.39,0,0,1,23.13,0H61a3,3,0,0,1,3,3L63.6,54.55h3.55a3.48,3.48,0,0,0,3.49-3.48V21.4A3.48,3.48,0,0,0,67.15,17.92Z"/><path class="cls-2" d="M44.51,32.37h3.34a11.65,11.65,0,0,1,3-7,10.65,10.65,0,0,0-6.31-2.76v9.75Z"/><path class="cls-2" d="M33,32.37h4.67a10,10,0,0,0-2.43-5.71A10.7,10.7,0,0,0,33,32.37Z"/><path class="cls-2" d="M35.26,39.82a9.89,9.89,0,0,0,2.43-5.71H33A10.73,10.73,0,0,0,35.26,39.82Z"/><path class="cls-2" d="M52,39.82a10.73,10.73,0,0,0,2.24-5.71H49.59A9.89,9.89,0,0,0,52,39.82Z"/><path class="cls-2" d="M52,26.66a9.9,9.9,0,0,0-2.44,5.71h4.67A10.53,10.53,0,0,0,52,26.66Z"/><path class="cls-2" d="M42.77,22.62a10.62,10.62,0,0,0-6.32,2.76,11.71,11.71,0,0,1,3,7h3.34Z"/><path class="cls-2" d="M44.51,43.86a10.6,10.6,0,0,0,6.31-2.76,11.71,11.71,0,0,1-3-7H44.51Z"/><path class="cls-2" d="M42.77,43.86V34.11H39.43a11.71,11.71,0,0,1-3,7A10.62,10.62,0,0,0,42.77,43.86Z"/><path class="cls-2" d="M59.79,50.51a1.93,1.93,0,0,0-1.92-1.92H29a1.92,1.92,0,0,0,0,3.84H57.88A1.92,1.92,0,0,0,59.79,50.51Z"/><path class="cls-2" d="M61,30.52H55.74a12.19,12.19,0,0,1,.3,2.72,12.4,12.4,0,0,1-24.8,0,12.19,12.19,0,0,1,.3-2.72H26.3A1.26,1.26,0,0,0,25,31.77l-.37,22.78h3.38c-.13-.21-.25-.43-.4-.64v0a3.66,3.66,0,0,1,1.39-7H57.88a3.66,3.66,0,0,1,1.39,7v0c-.14.21-.26.42-.4.64h3l.37-22.8A1.26,1.26,0,0,0,61,30.52Z"/><path class="cls-2" d="M55.05,54.17c-.29.56-.57,1.13-.81,1.71H50.55c.17-.59.37-1.15.59-1.71H49.28c-.2.56-.39,1.12-.56,1.71H44.33V54.17H42.58v1.71H38.19c-.17-.59-.36-1.15-.56-1.71H35.77c.21.56.41,1.12.6,1.71H32.66c-.24-.59-.52-1.15-.81-1.71h-2a20.3,20.3,0,0,1,2.48,14.15.87.87,0,0,0,1.71.33,6.17,6.17,0,0,0,.08-.62h3.25c0,.12,0,.23,0,.34a.88.88,0,0,0,.76,1h.11a.86.86,0,0,0,.86-.76,5.07,5.07,0,0,0,0-.56h3.43v.45a.87.87,0,1,0,1.74,0V68h3.42c0,.19,0,.38.05.56a.88.88,0,0,0,.87.76h.11a.88.88,0,0,0,.76-1c0-.11,0-.22,0-.34h3.25c0,.21.05.41.09.62a.87.87,0,0,0,.85.71l.17,0a.88.88,0,0,0,.69-1A20.25,20.25,0,0,1,57,54.17ZM33.32,57.62h3.49a30.47,30.47,0,0,1,.59,3.46H34.16A21.81,21.81,0,0,0,33.32,57.62Zm4.24,8.67H34.37a20,20,0,0,0,0-3.46h3.17A28.53,28.53,0,0,1,37.56,66.29Zm5,0H39.31a33.27,33.27,0,0,0,0-3.46h3.28Zm0-5.21H39.16a30.41,30.41,0,0,0-.55-3.46h4Zm5,5.21H44.33V62.83h3.28A33.28,33.28,0,0,0,47.6,66.29Zm.15-5.21H44.33V57.62h4A30.41,30.41,0,0,0,47.75,61.08Zm1.59,5.21a30.71,30.71,0,0,1,0-3.46h3.17a23.51,23.51,0,0,0,0,3.46Zm3.39-5.21H49.49a30.47,30.47,0,0,1,.59-3.46h3.5A23,23,0,0,0,52.73,61.08Z"/></svg>