<svg id="Layer_1" data-name="Layer 1" xmlns="http://www.w3.org/2000/svg" viewBox="0 0 59.58 59.59"><defs><style>.cls-1{fill:#00a2c0;}</style></defs><title>CanchasClub_Iconografia</title><path class="cls-1" d="M12.06,29.79A17.73,17.73,0,1,0,29.79,12.06,17.75,17.75,0,0,0,12.06,29.79m30.09-1.08A12.4,12.4,0,1,1,28.71,17.44,12.41,12.41,0,0,1,42.15,28.71"/><path class="cls-1" d="M54.11,39.6,57,39.48a1.81,1.81,0,0,0,1.57-1.25l1-4.64a1.81,1.81,0,0,0-.94-1.77L56,30.54a2.2,2.2,0,0,1-1.13-1.78s0-.34-.08-1.14l0-.28c0-.3.4-.84,1-1.21l2.49-1.57A1.78,1.78,0,0,0,59,22.7l-1.47-4.51a1.8,1.8,0,0,0-1.69-1.06l-2.94.21a2.08,2.08,0,0,1-1.8-.83c-.31-.5-.94-2.26-.62-2.87L51.8,11a1.79,1.79,0,0,0-.29-2L48,5.91a1.8,1.8,0,0,0-2-.08L43.54,7.48a2.12,2.12,0,0,1-2,.18c-.51-.28-2-1.5-2-2.18l-.11-2.93A1.82,1.82,0,0,0,38.23,1L33.59,0A1.82,1.82,0,0,0,31.82,1L30.54,3.59a2.21,2.21,0,0,1-1.78,1.14s-.34,0-1.14.07l-.28,0c-.3,0-.84-.41-1.21-1l-1.57-2.5A1.82,1.82,0,0,0,22.7.62L18.19,2.09a1.81,1.81,0,0,0-1.06,1.7l.21,2.94a2.1,2.1,0,0,1-.83,1.8c-.5.3-2.26.94-2.87.62L11,7.78a1.83,1.83,0,0,0-2,.3L5.9,11.61a1.82,1.82,0,0,0-.07,2l1.65,2.44a2.09,2.09,0,0,1,.18,2c-.28.51-1.5,1.94-2.18,2l-2.94.12A1.78,1.78,0,0,0,1,21.35L0,26A1.84,1.84,0,0,0,1,27.77L3.6,29a2.22,2.22,0,0,1,1.13,1.79s0,.34.07,1.14l0,.28c0,.3-.41.84-1,1.21L1.36,35a1.81,1.81,0,0,0-.74,1.86l1.47,4.5a1.81,1.81,0,0,0,1.7,1.07l2.94-.22a2.09,2.09,0,0,1,1.79.83c.31.51,1,2.27.63,2.87l-1.37,2.6a1.8,1.8,0,0,0,.3,2l3.53,3.16a1.8,1.8,0,0,0,2,.08l2.44-1.65a2,2,0,0,1,2-.18c.52.28,1.95,1.5,2,2.18L20.11,57a1.8,1.8,0,0,0,1.24,1.57l4.64,1a1.81,1.81,0,0,0,1.77-.93L29,56a2.24,2.24,0,0,1,1.79-1.13s.34,0,1.14-.07l.28,0c.3,0,.84.4,1.2,1L35,58.23a1.83,1.83,0,0,0,1.87.74l4.5-1.47a1.82,1.82,0,0,0,1.07-1.7l-.22-2.94a2.15,2.15,0,0,1,.83-1.8c.51-.31,2.27-.94,2.87-.62l2.6,1.36a1.8,1.8,0,0,0,2-.29L53.68,48a1.8,1.8,0,0,0,.08-2l-1.65-2.43a2.06,2.06,0,0,1-.18-2c.28-.51,1.5-2,2.18-2M29.79,50A20.21,20.21,0,1,1,50,29.79,20.22,20.22,0,0,1,29.79,50"/></svg>