<svg id="Layer_1" data-name="Layer 1" xmlns="http://www.w3.org/2000/svg" viewBox="0 0 87.28 87.28"><defs><style>.cls-1{fill:#00a2c0;}.cls-2{fill:#fff;}</style></defs><title>CanchasClub_Iconografia</title><circle class="cls-1" cx="43.64" cy="43.64" r="43.64"/><path class="cls-2" d="M43.23,14.53A28.12,28.12,0,1,0,71.34,42.65,28.15,28.15,0,0,0,43.23,14.53ZM62.42,57.48l-1.36-3.82-8.2,2.25L48.19,63,51.4,65.5a23.93,23.93,0,0,1-16.35,0L38.26,63l-4.67-7.1-8.2-2.25L24,57.48a24.17,24.17,0,0,1-5.1-14.83c0-.25,0-.48,0-.72l3.36,2.29,5.31-6.64-.4-8.49L23.16,29a24.29,24.29,0,0,1,13.26-9.63l-1.15,3.92,8,3,8-3L50,19.34A24.38,24.38,0,0,1,63.29,29l-4.08.12-.39,8.5,5.31,6.63,3.35-2.29c0,.24,0,.48,0,.72A24.11,24.11,0,0,1,62.42,57.48Z"/><polygon class="cls-2" points="34.1 38.57 37.58 49.3 48.87 49.3 52.36 38.57 43.23 31.93 34.1 38.57"/><circle class="cls-1" cx="56.49" cy="22.27" r="12.82"/><circle class="cls-2" cx="56.49" cy="22.27" r="10.99" transform="translate(-4.22 23.15) rotate(-22.34)"/><path class="cls-1" d="M53.81,24.6a3.49,3.49,0,0,0,2.54,1.15,1.84,1.84,0,0,0,2-1.82c0-1.21-1.11-1.86-2.36-1.86a4.54,4.54,0,0,0-2.06.49l-.71-.35.4-4.66c.06-.72.31-1,1-1h4c.73,0,1.05.32,1.05,1v1.67H57.9v-.66a.3.3,0,0,0-.33-.34H55.76c-.21,0-.32.12-.34.34l-.14,1.51c0,.29-.07.5-.07.5h0a3.51,3.51,0,0,1,1.16-.2c2.51,0,4,1.59,4,3.59a3.76,3.76,0,0,1-4,3.69,4.8,4.8,0,0,1-3.56-1.53Z"/></svg>