<svg id="Layer_1" data-name="Layer 1" xmlns="http://www.w3.org/2000/svg" viewBox="0 0 87.28 87.28"><defs><style>.cls-1{fill:#00a2c0;}.cls-2{fill:#fff;}</style></defs><title>CanchasClub_Iconografia</title><circle class="cls-1" cx="43.64" cy="43.64" r="43.64"/><path class="cls-2" d="M43.23,14.53A28.12,28.12,0,1,0,71.34,42.65,28.15,28.15,0,0,0,43.23,14.53ZM62.42,57.48l-1.36-3.82-8.2,2.25L48.19,63,51.4,65.5a23.93,23.93,0,0,1-16.35,0L38.26,63l-4.67-7.1-8.2-2.25L24,57.48a24.17,24.17,0,0,1-5.1-14.83c0-.25,0-.48,0-.72l3.36,2.29,5.31-6.64-.4-8.49L23.16,29a24.29,24.29,0,0,1,13.26-9.63l-1.15,3.92,8,3,8-3L50,19.34A24.38,24.38,0,0,1,63.29,29l-4.08.12-.39,8.5,5.31,6.63,3.35-2.29c0,.24,0,.48,0,.72A24.11,24.11,0,0,1,62.42,57.48Z"/><polygon class="cls-2" points="34.1 38.57 37.58 49.3 48.87 49.3 52.36 38.57 43.23 31.93 34.1 38.57"/><circle class="cls-1" cx="56.49" cy="22.27" r="12.82"/><circle class="cls-2" cx="56.49" cy="22.27" r="10.99" transform="translate(-3.8 29.52) rotate(-28.38)"/><path class="cls-1" d="M48.67,25.74H51V19.66c0-.36,0-.73,0-.73h0a2.67,2.67,0,0,1-.48.61l-.88.83-1.17-1.23,2.74-2.63h1.82v9.23h2.36v1.71H48.67Z"/><path class="cls-1" d="M61.75,19.59a1.42,1.42,0,0,0-1.58-1.42c-.87,0-1.44.45-1.44.86v.48H56.91V18.43c0-1.45,1.92-2.11,3.33-2.11a3.28,3.28,0,0,1,3.55,3.24c0,3.7-5.29,3.91-5.29,5.9,0,.2.12.28.42.28h3.2a.31.31,0,0,0,.34-.34v-.66h1.82V26.4c0,.74-.31,1.05-1.05,1.05h-5.7c-1,0-1.12-.42-1.12-1.45C56.41,22,61.75,22.25,61.75,19.59Z"/></svg>