<svg id="Layer_1" data-name="Layer 1" xmlns="http://www.w3.org/2000/svg" viewBox="0 0 87.28 87.28"><defs><style>.cls-1{fill:#00a2c0;}.cls-2{fill:#fff;}</style></defs><title>CanchasClub_Iconografia</title><circle class="cls-1" cx="43.64" cy="43.64" r="43.64"/><path class="cls-2" d="M67.82,19.71l-.07,0a3.57,3.57,0,0,0-4.56.76L31,58.89c-.54.54-4.91,1.32-4.35-3.46a4.44,4.44,0,0,0-8.82-1c-1.45,14,14.31,17.09,20.12,10a1.3,1.3,0,0,0,.16-.31c.23-.27.51-.6.86-1a10.62,10.62,0,0,1-.62-2.6c0-.42,0-.79,0-1.19a11,11,0,0,1,9.45-10.83,9.94,9.94,0,0,1,1.48-.11,11.51,11.51,0,0,1,1.18.06c17.17-22,2-2.58,18.3-23.49A3.55,3.55,0,0,0,67.82,19.71ZM57,36.45a18.46,18.46,0,0,1-2.92-1.8l2.54-3a22.3,22.3,0,0,0,2.69,1.87ZM67.16,23.36a1.34,1.34,0,0,1-.12.24L64.37,27A19.46,19.46,0,0,1,62,25.29l2.88-3.47A1.4,1.4,0,0,1,67.16,23.36Z"/><path class="cls-2" d="M58.05,59.28a8.78,8.78,0,0,1-17.51,1c0-.33,0-.64,0-1a8.82,8.82,0,0,1,7.59-8.7,8.25,8.25,0,0,1,1.19-.09A8.79,8.79,0,0,1,58.05,59.28Z"/></svg>