<svg id="Layer_1" data-name="Layer 1" xmlns="http://www.w3.org/2000/svg" viewBox="0 0 73.14 67.29"><defs><style>.cls-1{fill:#00a2c0;}</style></defs><title>CanchasClub_Iconografia</title><path class="cls-1" d="M64.58,37.85,37.78,14.18a1.84,1.84,0,0,0-2.43,0L8.56,37.85a.93.93,0,0,0-.31.69V66.38a.92.92,0,0,0,.92.91H28a.92.92,0,0,0,.92-.91V48.6a3.67,3.67,0,0,1,3.67-3.68h7.95a3.68,3.68,0,0,1,3.68,3.68V66.38a.91.91,0,0,0,.91.91H64a.92.92,0,0,0,.92-.91V38.54a1,1,0,0,0-.31-.69"/><path class="cls-1" d="M72,28.67,41.42,1.83a7.34,7.34,0,0,0-9.7,0L1.18,28.67a3.47,3.47,0,0,0,4.58,5.21l28.38-25a3.66,3.66,0,0,1,4.86,0l28.37,25A3.47,3.47,0,1,0,72,28.67"/></svg>