<svg id="Layer_1" data-name="Layer 1" xmlns="http://www.w3.org/2000/svg" viewBox="0 0 58.04 56.38"><defs><style>.cls-1{fill:#00a2c0;}</style></defs><title>CanchasClub_Iconografia</title><path class="cls-1" d="M46.7,29.62a1.9,1.9,0,0,0-1.9-1.9H26.58a1.9,1.9,0,1,0,0,3.79H44.8a1.9,1.9,0,0,0,1.9-1.89M7.59,44.05a1.52,1.52,0,0,1-1.51-1.52V16.71a1.52,1.52,0,0,1,1.51-1.52H47.08a1.52,1.52,0,0,1,1.52,1.52V31l6.08-6.08V6.07A6.08,6.08,0,0,0,48.6,0H6.08A6.08,6.08,0,0,0,0,6.07v38a6.08,6.08,0,0,0,6.08,6.07H30.86a4.52,4.52,0,0,1,1.26-2.63l2.09-2.08,1.37-1.36ZM18.23,5.32H24.3a2.28,2.28,0,1,1,0,4.55H18.23a2.28,2.28,0,1,1,0-4.55M9.11,4.56a3,3,0,1,1-3,3,3,3,0,0,1,3-3M57.82,37l-4.36-4.35a.75.75,0,0,0-1.07,0L40.18,44.81a.75.75,0,0,0,0,1.07l4.36,4.36a.75.75,0,0,0,1.07,0L57.82,38a.78.78,0,0,0,0-1.08M37.43,48.63a.76.76,0,0,0-1.07,0c-.5.49-1.21,1.2-1.54,1.54a.77.77,0,0,0-.22.47l-.37,4.92a.76.76,0,0,0,.84.81l4.72-.54a.77.77,0,0,0,.45-.22l1.55-1.54a.78.78,0,0,0,0-1.08Zm-26-13.32a1.9,1.9,0,0,0,0,3.8H38.73a1.9,1.9,0,1,0,0-3.8ZM44.8,20.12H26.58a1.9,1.9,0,1,0,0,3.8H44.8a1.9,1.9,0,1,0,0-3.8"/></svg>