<svg id="Layer_1" data-name="Layer 1" xmlns="http://www.w3.org/2000/svg" viewBox="0 0 60.65 62.94"><defs><style>.cls-1{fill:#00a2c0;}</style></defs><title>CanchasClub_Iconografia</title><path class="cls-1" d="M5.72,7.25A5.72,5.72,0,0,0,0,13V57.22a5.72,5.72,0,0,0,5.72,5.72H54.93a5.72,5.72,0,0,0,5.72-5.72V13a5.72,5.72,0,0,0-5.72-5.72h-2v3.62a4.39,4.39,0,0,1-8.78,0V7.25H16.5v3.62a4.39,4.39,0,0,1-8.78,0V7.25Zm3.63,16H51.3a2.19,2.19,0,0,1,2.29,2.07V54a2.18,2.18,0,0,1-2.29,2.07H9.35A2.18,2.18,0,0,1,7.06,54V25.34a2.19,2.19,0,0,1,2.29-2.07"/><path class="cls-1" d="M10,2.1v8.77a2.1,2.1,0,0,0,4.2,0V2.1a2.1,2.1,0,0,0-4.2,0"/><path class="cls-1" d="M46.44,2.1v8.77a2.1,2.1,0,0,0,4.2,0V2.1a2.1,2.1,0,0,0-4.2,0"/><rect class="cls-1" x="11.07" y="26.84" width="11.1" height="11.36"/><rect class="cls-1" x="25.04" y="26.84" width="11.1" height="11.36"/><rect class="cls-1" x="11.07" y="40.81" width="11.1" height="11.36"/><rect class="cls-1" x="25.04" y="40.81" width="11.1" height="11.36"/><rect class="cls-1" x="39.54" y="26.84" width="11.1" height="11.36"/><rect class="cls-1" x="39.54" y="40.81" width="11.1" height="11.36"/></svg>