<svg id="Layer_1" data-name="Layer 1" xmlns="http://www.w3.org/2000/svg" viewBox="0 0 87.28 87.28"><defs><style>.cls-1{fill:#00a2c0;}.cls-2{fill:#fff;}</style></defs><title>CanchasClub_Iconografia</title><circle class="cls-1" cx="43.64" cy="43.64" r="43.64"/><path class="cls-2" d="M28.92,41.76a.18.18,0,0,0-.3.14A19.79,19.79,0,0,0,29,44.51a15.37,15.37,0,0,1-4.32,13.92L21,62.1a1.57,1.57,0,0,0,0,2.23l3.86,3.87a1.58,1.58,0,0,0,2.24,0l3.67-3.67A15.34,15.34,0,0,1,44.7,60.2a22.47,22.47,0,0,0,2.61.38.18.18,0,0,0,.14-.3ZM64.8,24.37a20.22,20.22,0,0,0-12.39-5.82,5.43,5.43,0,0,1,0,.57,10.26,10.26,0,0,1-18.12,6.6A21.29,21.29,0,0,0,29.26,36a.87.87,0,0,0,.24.78L52.35,59.64a.87.87,0,0,0,.78.24,21.26,21.26,0,0,0,11.25-5.94C72.69,45.67,72.87,32.42,64.8,24.37Z"/><path class="cls-2" d="M42.18,11.52a7.61,7.61,0,1,1-7.6,7.6A7.61,7.61,0,0,1,42.18,11.52Z"/><circle class="cls-1" cx="42.18" cy="19.12" r="8.48" transform="translate(22.35 60.98) rotate(-89.04)"/><path class="cls-2" d="M37,13.79a7.44,7.44,0,0,1,5.57-2.07,7.4,7.4,0,0,1-7.82,7.57A7.42,7.42,0,0,1,37,13.79Z"/><path class="cls-2" d="M34.87,20.36a8.47,8.47,0,0,0,8.79-8.51,7.4,7.4,0,0,1,5.84,6,8.49,8.49,0,0,0-8.79,8.17v.33a7.39,7.39,0,0,1-5.84-6Z"/><path class="cls-2" d="M41.77,26.53A7.42,7.42,0,0,1,49,19h.56a7.39,7.39,0,0,1-7.19,7.58Z"/></svg>