<svg id="Layer_1" data-name="Layer 1" xmlns="http://www.w3.org/2000/svg" viewBox="0 0 87.28 87.28"><defs><style>.cls-1{fill:#00a2c0;}.cls-2{fill:#fff;}</style></defs><title>CanchasClub_Iconografia</title><circle class="cls-1" cx="43.64" cy="43.64" r="43.64"/><path class="cls-2" d="M34.81,41.37c-.37,2.83-1.35,5.91-3.2,7.88-1.11,1.23-2.71,2.84-4.43,4.68l4.55,4.56c1.85-1.84,3.45-3.45,4.69-4.43,2-1.85,5-2.71,7.88-3.21a16.59,16.59,0,0,1-5.79-3.69A13.85,13.85,0,0,1,34.81,41.37Z"/><path class="cls-2" d="M16.46,64.53a3.31,3.31,0,1,0,4.68,4.68c2.34-2.46,6.28-6.4,9.73-9.85L26.31,54.8C22.86,58.25,18.92,62.07,16.46,64.53Z"/><path class="cls-2" d="M68.33,27.94l-1.48-1.48,1.36-1.36.61.62a15,15,0,0,0-.49-2.34l-.12.12L66.73,22l.61-.61c-.24-.37-.37-.62-.61-1l-.74.74-1.48-1.48.74-.74a2.76,2.76,0,0,0-1-.61l-.61.61-1.48-1.48.12-.12A12.57,12.57,0,0,0,60,16.85l.62.61-1.36,1.36-1.48-1.48.62-.62a18.92,18.92,0,0,0-2.59.25l.37.37-1.48,1.48-1.23-1.23a19.07,19.07,0,0,0-4.19,2.09L47.88,21l-.13-.13c-.24.25-.61.5-.86.74l.25.25-1.48,1.48-.25-.25c-.25.25-.49.62-.74.86l.25.25L43.56,25.6a14,14,0,0,0-2.22,4.18L42.58,31,41.1,32.5l-.37-.37c0,.24-.12.61-.12.86a6.65,6.65,0,0,0-.13,1.6L41.1,34l1.48,1.48L41.1,36.93l-.37-.37a10.77,10.77,0,0,0,.49,2.1L42.58,40l-.5.49c.25.37.37.62.62,1l.62-.62,1.48,1.48-.62.62a2.8,2.8,0,0,0,1,.61l.5-.49L47,44.45a10.77,10.77,0,0,0,2.1.49l-.37-.37,1.48-1.48,1.48,1.48-.62.62a19.07,19.07,0,0,0,2.59-.25l-.37-.37,1.48-1.48L56,44.32a19.07,19.07,0,0,0,4.19-2.09l1.48-1.48.24.25c.25-.25.62-.5.86-.74L62.29,40l1.48-1.48.25.25c.24-.25.49-.62.74-.86l-.25-.25L66,36.19A18.85,18.85,0,0,0,68.08,32l-1.23-1.23,1.48-1.48.37.37c0-.25.12-.61.12-1A6.74,6.74,0,0,0,69,27.07Zm-.86-3.7L66,25.6l-1.48-1.48,1.35-1.36ZM48.74,30.89l1.48-1.48,1.48,1.48-1.48,1.48Zm.61,2.34-1.47,1.48L46.4,33.23l1.48-1.47ZM51,28.68l1.47-1.48,1.48,1.48-1.48,1.47Zm1.47,3.08,1.48,1.47-1.48,1.48L51,33.23Zm.74-.87,1.48-1.48,1.48,1.48-1.48,1.48Zm2.34-2.21L57,27.2l1.48,1.48L57,30.15ZM57,31.76l1.48,1.47L57,34.71l-1.48-1.48Zm.74-.87,1.48-1.48,1.48,1.48-1.48,1.48Zm2.34-2.21,1.48-1.48L63,28.68l-1.48,1.47Zm0-4.56,1.48-1.48L63,24.12,61.55,25.6Zm.62,2.34-1.48,1.48-1.48-1.48L59.21,25ZM57,25.6l-1.48-1.48L57,22.64l1.48,1.48Zm-.86.86-1.48,1.48-1.48-1.48L54.65,25Zm-3.7-.86L51,24.12l1.47-1.48,1.48,1.48Zm-.73.86-1.48,1.48-1.48-1.48L50.22,25Zm-2.35,2.22-1.47,1.47L46.4,28.68l1.48-1.48Zm-2.21,2.21-1.48,1.48-1.48-1.48,1.48-1.48Zm0,4.56-1.48,1.48-1.48-1.48L45.66,34Zm.74.86,1.47,1.48-1.47,1.48L46.4,37.79Zm.86-.86L50.22,34l1.48,1.48-1.48,1.48Zm3.69.86,1.48,1.48-1.48,1.48L51,37.79Zm.74-.86L54.65,34l1.48,1.48-1.48,1.48Zm3.82.86,1.48,1.48L57,39.27l-1.48-1.48Zm.74-.86L59.21,34l1.48,1.48-1.48,1.48Zm2.34-2.22,1.48-1.47L63,33.23l-1.48,1.48Zm2.22-2.34,1.48-1.48,1.48,1.48-1.48,1.48Zm0-4.43L63.77,25l1.48,1.48-1.48,1.48ZM65.13,22l-1.36,1.36L62.29,21.9l1.36-1.36Zm-3.7-3.82,1.48,1.48L61.55,21l-1.48-1.48Zm-.74,3.7-1.48,1.48L57.73,21.9l1.48-1.48ZM57,18.2l1.48,1.48L57,21.16l-1.48-1.48Zm-.74,3.7-1.6,1.48L53.17,21.9l1.48-1.48Zm-3.82-3.82,1.48,1.48-1.48,1.6L51,19.68Zm-2.21,2.34L51.7,21.9l-1.48,1.48L48.74,21.9Zm-2.34,2.22,1.47,1.48L47.88,25.6,46.4,24.12ZM45.66,25l1.48,1.48-1.48,1.48-1.48-1.48ZM42,28.68l1.48-1.48,1.48,1.48-1.48,1.47Zm0,4.55,1.48-1.47,1.48,1.47-1.48,1.48Zm-.12,4.56,1.48-1.48,1.48,1.48-1.48,1.48Zm2.22,2.34,1.47-1.47L47,40.13l-1.48,1.48Zm3.82,3.7L46.4,42.35l1.48-1.48,1.47,1.48ZM48.74,40l1.48-1.48L51.7,40l-1.48,1.48Zm3.69,3.82L51,42.35l1.47-1.48,1.48,1.48ZM53.17,40l1.48-1.48L56.13,40l-1.48,1.48ZM57,43.71l-1.48-1.48L57,40.75l1.48,1.48Zm2.22-2.22L57.73,40l1.48-1.48L60.69,40Zm2.34-2.22-1.48-1.48,1.48-1.48L63,37.79Zm2.22-2.34-1.48-1.48L63.77,34l1.48,1.48Zm3.7-3.7L66,34.71l-1.48-1.48L66,31.76Zm-1.36-3.08-1.48-1.47,1.48-1.48,1.48,1.48Z"/><path class="cls-2" d="M70.05,15.61c-7-7-19.59-5.79-28,2.72s-9.61,21.07-2.71,28,19.59,5.79,28-2.72S77.08,22.64,70.05,15.61ZM64.26,40.5c-6.77,6.66-16.51,7.89-21.68,2.59s-4.07-14.91,2.71-21.68,16.39-7.89,21.56-2.71S70.92,33.73,64.26,40.5Z"/><circle class="cls-1" cx="42.18" cy="19.12" r="8.48" transform="matrix(0.02, -1, 1, 0.02, 22.36, 60.98)"/><path class="cls-2" d="M37,13.79a7.44,7.44,0,0,1,5.57-2.07,7.4,7.4,0,0,1-7.82,7.57A7.42,7.42,0,0,1,37,13.79Z"/><path class="cls-2" d="M34.87,20.36a8.47,8.47,0,0,0,8.79-8.51,7.4,7.4,0,0,1,5.84,6,8.49,8.49,0,0,0-8.79,8.17v.33a7.39,7.39,0,0,1-5.84-6Z"/><path class="cls-2" d="M41.77,26.53A7.42,7.42,0,0,1,49,19h.56a7.39,7.39,0,0,1-7.19,7.58Z"/></svg>