<svg id="Layer_1" data-name="Layer 1" xmlns="http://www.w3.org/2000/svg" viewBox="0 0 87.28 87.28"><defs><style>.cls-1{fill:#00a2c0;}.cls-2{fill:#fff;}</style></defs><title>CanchasClub_Iconografia</title><circle class="cls-1" cx="43.64" cy="43.64" r="43.64"/><path class="cls-2" d="M33.87,19.08A26.41,26.41,0,0,1,66.45,30.32a28,28,0,0,1-8.76,8A31.09,31.09,0,0,0,33.87,19.08Zm11,23.08A28.07,28.07,0,0,0,55.07,39.7a28.07,28.07,0,0,0-26-18.08,26.51,26.51,0,0,0-9.87,12A31.29,31.29,0,0,1,44.83,42.16ZM28.26,36.8a27.71,27.71,0,0,0-10.15,0,26.77,26.77,0,0,0-.9,6.86A26.47,26.47,0,0,0,42.4,70.07,31,31,0,0,1,28.26,36.8Zm13.91,6.88a28.1,28.1,0,0,0-11-6.2C29.32,43.4,29.64,62,48.36,69.67A29.59,29.59,0,0,0,54,68,31.16,31.16,0,0,1,42.17,43.68Zm7.76,15.6a28,28,0,0,0,7,7.2,26.5,26.5,0,0,0,12.5-17.21A30.89,30.89,0,0,1,49.93,59.28Zm18-26A31.15,31.15,0,0,1,45.15,45.08a28,28,0,0,0,3.11,11.4,28,28,0,0,0,21.81-12.8v0A26.34,26.34,0,0,0,67.94,33.25Z"/></svg>